# xmcd
#
# Track frame offsets:
# 150
# 15915
# 27225
# 42285
# 57405
# 74652
# 97302
# 110642
# 127072
# 147757
# 163382
# 180275
# 196042
# 210030
#
# Disc length: 3005 seconds
#
#
# Revision: 2
# Processed by: cddbd v1.5.1PL0 Copyright (c) Steve Scherf et al.
# Submitted via: FreeRIP 2.941 
#
DISCID=c40bbb0e
DTITLE=Tintin og Hårtørrerne - Tolv-tretten tøre hårtørrer-træffere
DYEAR=1995
DGENRE=Bebob
TTITLE0=Columbian Blend [KAFFE!]
TTITLE1=Play That Jive
TTITLE2=Dyrehospitalet
TTITLE3=Back To My Plow
TTITLE4=Meat
TTITLE5=Talking 'bout The Weather
TTITLE6=Minding My Own Business
TTITLE7=Baby's Back
TTITLE8=King of The Jukebox
TTITLE9=Girl With Curly Hair
TTITLE10=Be Cool
TTITLE11=Collage 2/ Bye Bye, Betty
TTITLE12=Live Jive At Five, Clive
TTITLE13=Party's Over
EXTD=
EXTT0=
EXTT1=
EXTT2=
EXTT3=
EXTT4=
EXTT5=
EXTT6=
EXTT7=
EXTT8=
EXTT9=
EXTT10=
EXTT11=
EXTT12=
EXTT13=
PLAYORDER=
